<?xml version="1.0" encoding="UTF-8" standalone="no"?><!DOCTYPE svg PUBLIC "-//W3C//DTD SVG 1.1//EN" "http://www.w3.org/Graphics/SVG/1.1/DTD/svg11.dtd"><svg width="100%" height="100%" viewBox="0 0 120 120" version="1.1" xmlns="http://www.w3.org/2000/svg" xmlns:xlink="http://www.w3.org/1999/xlink" xml:space="preserve" xmlns:serif="http://www.serif.com/" style="fill-rule:evenodd;clip-rule:evenodd;stroke-linejoin:round;stroke-miterlimit:2;"><rect id="Mesa-de-trabajo1" serif:id="Mesa de trabajo1" x="0" y="0" width="120" height="120" style="fill:none;"/><clipPath id="_clip1"><rect x="0" y="0" width="120" height="120"/></clipPath><g clip-path="url(#_clip1)"><g><path d="M42.869,48.202c-4.031,15.045 4.913,30.534 19.962,34.566c15.049,4.032 30.539,-4.909 34.571,-19.954c4.031,-15.045 -4.913,-30.534 -19.962,-34.566c-15.049,-4.032 -30.539,4.909 -34.571,19.954Z" style="fill:url(#_Linear2);"/><path d="M44.249,83.084l-16.307,2.174c-4.774,0.661 -8.688,4.093 -9.941,8.767l-1.445,5.393l-0.044,-0.012l-1.796,6.703c-0.755,2.817 0.887,5.705 3.702,6.459l23.325,6.25l14.875,-24.578l-5.382,-9.334c-0.975,-0.731 -2.08,-1.265 -3.251,-1.578c-1.2,-0.322 -2.468,-0.414 -3.737,-0.244Zm-11.558,23.877l-3.879,-4.431c-0.239,-0.277 -0.322,-0.643 -0.228,-0.994l1.554,-5.798c0.156,-0.584 0.749,-0.926 1.327,-0.771l9.454,2.533c0.578,0.155 0.917,0.746 0.761,1.33l-1.554,5.798c-0.094,0.35 -0.355,0.625 -0.697,0.746l-5.578,1.898c-0.208,0.076 -0.425,0.08 -0.627,0.026c-0.204,-0.055 -0.39,-0.167 -0.533,-0.337Z" style="fill:url(#_Linear3);fill-rule:nonzero;"/><path d="M71.752,90.429l-9.27,5.352l0.615,28.76l23.272,6.236c2.823,0.756 5.709,-0.917 6.464,-3.735l1.796,-6.703l-0.041,-0.011l1.445,-5.393c1.252,-4.674 -0.401,-9.598 -4.234,-12.566l-13.029,-10.034c-1.013,-0.785 -2.154,-1.341 -3.345,-1.66c-1.194,-0.32 -2.442,-0.404 -3.674,-0.246Z" style="fill:url(#_Linear4);fill-rule:nonzero;"/></g></g><defs><linearGradient id="_Linear2" x1="0" y1="0" x2="1" y2="0" gradientUnits="userSpaceOnUse" gradientTransform="matrix(24.797532,-92.54565,92.54565,24.797532,50.935494,127.16811)"><stop offset="0" style="stop-color:#952681;stop-opacity:1"/><stop offset="1" style="stop-color:#e81a73;stop-opacity:1"/></linearGradient><linearGradient id="_Linear3" x1="0" y1="0" x2="1" y2="0" gradientUnits="userSpaceOnUse" gradientTransform="matrix(24.797532,-92.54565,92.54565,24.797532,29.942205,121.542976)"><stop offset="0" style="stop-color:#952681;stop-opacity:1"/><stop offset="1" style="stop-color:#e81a73;stop-opacity:1"/></linearGradient><linearGradient id="_Linear4" x1="0" y1="0" x2="1" y2="0" gradientUnits="userSpaceOnUse" gradientTransform="matrix(24.797532,-92.54565,92.54565,24.797532,71.933059,132.794391)"><stop offset="0" style="stop-color:#952681;stop-opacity:1"/><stop offset="1" style="stop-color:#e81a73;stop-opacity:1"/></linearGradient></defs></svg>