<?xml version="1.0" encoding="UTF-8" standalone="no"?><!DOCTYPE svg PUBLIC "-//W3C//DTD SVG 1.1//EN" "http://www.w3.org/Graphics/SVG/1.1/DTD/svg11.dtd"><svg width="100%" height="100%" viewBox="0 0 120 120" version="1.1" xmlns="http://www.w3.org/2000/svg" xmlns:xlink="http://www.w3.org/1999/xlink" xml:space="preserve" xmlns:serif="http://www.serif.com/" style="fill-rule:evenodd;clip-rule:evenodd;stroke-linejoin:round;stroke-miterlimit:2;"><rect id="Mesa-de-trabajo1" serif:id="Mesa de trabajo1" x="0" y="0" width="120" height="120" style="fill:none;"/><clipPath id="_clip1"><rect x="0" y="0" width="120" height="120"/></clipPath><g clip-path="url(#_clip1)"><g><path d="M47.891,133.485c-0.032,0.119 0.075,0.228 0.197,0.199l47.394,-11.909c0.66,-0.161 1.178,-0.674 1.353,-1.325l5.722,-21.353l-34.686,8.723c-1.09,0.275 -3.36,-1.273 -3.501,-2.386l-2.883,-22.688l-13.595,50.738Z" style="fill:url(#_Linear2);fill-rule:nonzero;"/><path d="M47.562,101.078c-0.676,0.894 -3.177,1.123 -3.987,0.339l-25.822,-25.042l-5.722,21.353c-0.174,0.65 0.015,1.353 0.509,1.823l35.082,34.008c0.089,0.085 0.236,0.044 0.267,-0.075l13.595,-50.738l-13.924,18.331Z" style="fill:url(#_Linear3);fill-rule:nonzero;"/><path d="M11.177,66.526c-0.865,1.144 -0.746,2.754 0.284,3.748l6.292,6.1l25.675,24.897c1.218,1.186 3.2,1.038 4.227,-0.323l13.831,-18.201l-23.158,-22.463l-12.918,-12.485l-14.233,18.727Z" style="fill:url(#_Linear4);fill-rule:nonzero;"/><path d="M92.78,74.874l-31.294,7.873l2.883,22.688c0.214,1.686 1.854,2.804 3.501,2.386l34.686,-8.723l8.497,-2.138c1.396,-0.344 2.307,-1.678 2.125,-3.103l-2.965,-23.335l-17.432,4.352Z" style="fill:url(#_Linear5);fill-rule:nonzero;"/><path d="M70.789,43.03l-44.981,4.772c-0.045,0.118 -0.048,0.131 -0.09,0.255l12.61,12.226l23.161,22.451l31.291,-7.86l17.033,-4.283c0.029,-0.128 0.032,-0.14 0.052,-0.265l-36.576,-26.625c-0.363,-0.262 -0.765,-0.452 -1.189,-0.566c-0.425,-0.114 -0.87,-0.151 -1.311,-0.104Z" style="fill:url(#_Linear6);fill-rule:nonzero;"/><path d="M52.888,43.583c-2.727,10.177 3.323,20.654 13.503,23.382c10.179,2.728 20.658,-3.321 23.385,-13.498c2.727,-10.177 -3.323,-20.654 -13.503,-23.382c-10.179,-2.728 -20.658,3.321 -23.385,13.498Z" style="fill:url(#_Linear7);"/><path d="M82.765,51.577c-0.508,1.897 -2.473,3.012 -4.347,2.51l-5.209,-1.396l-1.396,5.209c-0.509,1.899 -2.45,3.018 -4.347,2.51c-1.897,-0.508 -3.019,-2.448 -2.51,-4.347l1.396,-5.209l-5.186,-1.39c-1.899,-0.509 -3.018,-2.45 -2.51,-4.347c0.508,-1.897 2.448,-3.019 4.347,-2.51l5.186,1.39l1.39,-5.186c0.508,-1.897 2.45,-3.018 4.347,-2.51c1.897,0.508 3.018,2.45 2.51,4.347l-1.39,5.186l5.209,1.396c1.874,0.502 3.018,2.45 2.51,4.347" style="fill:#fff;fill-rule:nonzero;"/></g></g><defs><linearGradient id="_Linear2" x1="0" y1="0" x2="1" y2="0" gradientUnits="userSpaceOnUse" gradientTransform="matrix(12.903802,-48.157645,48.157645,12.903802,69.342219,138.241071)"><stop offset="0" style="stop-color:#df942c;stop-opacity:1"/><stop offset="1" style="stop-color:#b15b26;stop-opacity:1"/></linearGradient><linearGradient id="_Linear3" x1="0" y1="0" x2="1" y2="0" gradientUnits="userSpaceOnUse" gradientTransform="matrix(12.903901,-48.158015,48.158015,12.903901,26.940705,126.87962)"><stop offset="0" style="stop-color:#df942c;stop-opacity:1"/><stop offset="1" style="stop-color:#b15b26;stop-opacity:1"/></linearGradient><linearGradient id="_Linear4" x1="0" y1="0" x2="1" y2="0" gradientUnits="userSpaceOnUse" gradientTransform="matrix(-32.581829,34.736284,-34.736284,-32.581829,43.045467,67.44498)"><stop offset="0" style="stop-color:#df942c;stop-opacity:1"/><stop offset="1" style="stop-color:#d16928;stop-opacity:1"/></linearGradient><linearGradient id="_Linear5" x1="0" y1="0" x2="1" y2="0" gradientUnits="userSpaceOnUse" gradientTransform="matrix(13.401382,49.66817,-49.66817,13.401382,84.292724,76.917239)"><stop offset="0" style="stop-color:#df942c;stop-opacity:1"/><stop offset="1" style="stop-color:#d16928;stop-opacity:1"/></linearGradient><linearGradient id="_Linear6" x1="0" y1="0" x2="1" y2="0" gradientUnits="userSpaceOnUse" gradientTransform="matrix(-7.82196,29.588761,-29.588761,-7.82196,61.445161,83.244842)"><stop offset="0" style="stop-color:#fab12f;stop-opacity:1"/><stop offset="1" style="stop-color:#7f4f24;stop-opacity:1"/></linearGradient><linearGradient id="_Linear7" x1="0" y1="0" x2="1" y2="0" gradientUnits="userSpaceOnUse" gradientTransform="matrix(9.90743,-36.975032,36.975032,9.90743,66.800081,65.432328)"><stop offset="0" style="stop-color:#e9332a;stop-opacity:1"/><stop offset="1" style="stop-color:#59062d;stop-opacity:1"/></linearGradient></defs></svg>