<?xml version="1.0" encoding="UTF-8" standalone="no"?><!DOCTYPE svg PUBLIC "-//W3C//DTD SVG 1.1//EN" "http://www.w3.org/Graphics/SVG/1.1/DTD/svg11.dtd"><svg width="100%" height="100%" viewBox="0 0 120 120" version="1.1" xmlns="http://www.w3.org/2000/svg" xmlns:xlink="http://www.w3.org/1999/xlink" xml:space="preserve" xmlns:serif="http://www.serif.com/" style="fill-rule:evenodd;clip-rule:evenodd;stroke-linejoin:round;stroke-miterlimit:2;"><rect id="Mesa-de-trabajo1" serif:id="Mesa de trabajo1" x="0" y="0" width="120" height="120" style="fill:none;"/><clipPath id="_clip1"><rect x="0" y="0" width="120" height="120"/></clipPath><g clip-path="url(#_clip1)"><g><path d="M27.804,33.745c-2.591,-0.694 -5.26,0.845 -5.954,3.434l-14.303,53.379c-0.693,2.587 0.848,5.257 3.439,5.951l60.38,16.179c1.122,-0.517 1.367,-0.218 2.34,-1.531c1.858,-2.529 1.071,-2.357 2.024,-4.139l13.85,-51.691c0.694,-2.589 -0.846,-5.256 -3.433,-5.949l-58.344,-15.633Z" style="fill:url(#_Linear2);fill-rule:nonzero;"/><path d="M97.826,76.461l-4.231,15.791c-0.088,0.328 0.111,0.669 0.439,0.757l17.315,4.64l1.089,-4.065c0.351,-1.312 0.186,-2.702 -0.477,-3.853l-5.292,-9.39c-0.626,-1.141 -1.689,-1.964 -2.924,-2.295l-5.919,-1.586Z" style="fill:url(#_Linear3);fill-rule:nonzero;"/><path d="M84.85,72.984l-9.119,34.033c2.159,-0.56 3.268,3.157 5.567,3.773c7.206,1.931 7.583,0.483 8.083,6.723l10.818,2.899c2.608,0.699 5.297,-0.92 6.021,-3.623l5.129,-19.141l-17.315,-4.64c-0.328,-0.088 -0.527,-0.429 -0.439,-0.757l4.231,-15.791l-12.976,-3.477Z" style="fill:url(#_Linear4);fill-rule:nonzero;"/><path d="M20.825,99.146c-1.479,5.52 1.802,11.203 7.322,12.682c5.52,1.479 11.203,-1.802 12.682,-7.322c1.479,-5.52 -1.802,-11.203 -7.322,-12.682c-5.52,-1.479 -11.203,1.802 -12.682,7.322Z" style="fill:url(#_Linear5);"/><path d="M77.847,105.069c-2.305,0.573 -4.371,1.949 -5.797,3.884c-0.744,1.008 -1.328,2.181 -1.673,3.469c-1.478,5.517 1.803,11.205 7.321,12.683c5.517,1.478 11.205,-1.805 12.683,-7.323c1.478,-5.517 -1.806,-11.203 -7.323,-12.682c-1.762,-0.472 -3.556,-0.462 -5.211,-0.032Z" style="fill:url(#_Linear6);fill-rule:nonzero;"/></g></g><defs><linearGradient id="_Linear2" x1="0" y1="0" x2="1" y2="0" gradientUnits="userSpaceOnUse" gradientTransform="matrix(15.906767,-61.99547,61.99547,15.906767,40.407412,104.743231)"><stop offset="0" style="stop-color:#faeb0e;stop-opacity:1"/><stop offset="1" style="stop-color:#df942c;stop-opacity:1"/></linearGradient><linearGradient id="_Linear3" x1="0" y1="0" x2="1" y2="0" gradientUnits="userSpaceOnUse" gradientTransform="matrix(-14.302592,8.257605,-8.257605,-14.302592,108.693075,84.685561)"><stop offset="0" style="stop-color:#8cd2f4;stop-opacity:1"/><stop offset="1" style="stop-color:#2171b8;stop-opacity:1"/></linearGradient><linearGradient id="_Linear4" x1="0" y1="0" x2="1" y2="0" gradientUnits="userSpaceOnUse" gradientTransform="matrix(-31.326563,-8.041493,8.041493,-31.326563,110.361171,101.276364)"><stop offset="0" style="stop-color:#faeb0e;stop-opacity:1"/><stop offset="1" style="stop-color:#df942c;stop-opacity:1"/></linearGradient><linearGradient id="_Linear5" x1="0" y1="0" x2="1" y2="0" gradientUnits="userSpaceOnUse" gradientTransform="matrix(5.693753,-21.249375,21.249375,5.693753,27.95768,112.531499)"><stop offset="0" style="stop-color:#797776;stop-opacity:1"/><stop offset="1" style="stop-color:#1e1c1a;stop-opacity:1"/></linearGradient><linearGradient id="_Linear6" x1="0" y1="0" x2="1" y2="0" gradientUnits="userSpaceOnUse" gradientTransform="matrix(5.693753,-21.249375,21.249375,5.693753,77.509486,125.808866)"><stop offset="0" style="stop-color:#62605f;stop-opacity:1"/><stop offset="1" style="stop-color:#1e1c1a;stop-opacity:1"/></linearGradient></defs></svg>