<?xml version="1.0" encoding="UTF-8" standalone="no"?><!DOCTYPE svg PUBLIC "-//W3C//DTD SVG 1.1//EN" "http://www.w3.org/Graphics/SVG/1.1/DTD/svg11.dtd"><svg width="100%" height="100%" viewBox="0 0 120 120" version="1.1" xmlns="http://www.w3.org/2000/svg" xmlns:xlink="http://www.w3.org/1999/xlink" xml:space="preserve" xmlns:serif="http://www.serif.com/" style="fill-rule:evenodd;clip-rule:evenodd;stroke-linejoin:round;stroke-miterlimit:2;"><rect id="Mesa-de-trabajo1" serif:id="Mesa de trabajo1" x="0" y="0" width="120" height="120" style="fill:none;"/><clipPath id="_clip1"><rect x="0" y="0" width="120" height="120"/></clipPath><g clip-path="url(#_clip1)"><g><path d="M23.853,101.185l14.398,24.944c3.571,6.188 11.49,8.31 17.679,4.737l24.941,-14.403l-20.868,-36.151l-36.15,20.873Z" style="fill:url(#_Linear2);fill-rule:nonzero;"/><path d="M64.073,29.757l-24.941,14.403l20.87,36.151l36.147,-20.873l-14.398,-24.944c-1.787,-3.095 -4.66,-5.172 -7.859,-6.03c-3.2,-0.857 -6.727,-0.495 -9.819,1.293Z" style="fill:url(#_Linear3);fill-rule:nonzero;"/><path d="M14.184,58.565c-6.186,3.572 -8.307,11.486 -4.735,17.672l14.404,24.948l36.15,-20.873l-20.87,-36.151l-24.948,14.404Z" style="fill:url(#_Linear4);fill-rule:nonzero;"/><path d="M60.002,80.312l20.868,36.151l24.946,-14.404c6.186,-3.572 8.307,-11.486 4.735,-17.672l-14.402,-24.948l-36.147,20.873Z" style="fill:url(#_Linear5);fill-rule:nonzero;"/></g></g><defs><linearGradient id="_Linear2" x1="0" y1="0" x2="1" y2="0" gradientUnits="userSpaceOnUse" gradientTransform="matrix(-20.75881,-35.955313,35.955313,-20.75881,62.829759,126.954642)"><stop offset="0" style="stop-color:#daeffa;stop-opacity:1"/><stop offset="0.46" style="stop-color:#bce3f8;stop-opacity:1"/><stop offset="1" style="stop-color:#75b2e1;stop-opacity:1"/></linearGradient><linearGradient id="_Linear3" x1="0" y1="0" x2="1" y2="0" gradientUnits="userSpaceOnUse" gradientTransform="matrix(22.365451,38.738097,-38.738097,22.365451,55.902851,31.471311)"><stop offset="0" style="stop-color:#daeffa;stop-opacity:1"/><stop offset="0.46" style="stop-color:#bce3f8;stop-opacity:1"/><stop offset="1" style="stop-color:#75b2e1;stop-opacity:1"/></linearGradient><linearGradient id="_Linear4" x1="0" y1="0" x2="1" y2="0" gradientUnits="userSpaceOnUse" gradientTransform="matrix(34.593033,-19.972297,19.972297,34.593033,13.593161,83.004032)"><stop offset="0" style="stop-color:#e58e24;stop-opacity:1"/><stop offset="1" style="stop-color:#d4212c;stop-opacity:1"/></linearGradient><linearGradient id="_Linear5" x1="0" y1="0" x2="1" y2="0" gradientUnits="userSpaceOnUse" gradientTransform="matrix(-36.150206,20.871331,20.871331,36.150206,106.586647,77.514637)"><stop offset="0" style="stop-color:#daeffa;stop-opacity:1"/><stop offset="0.46" style="stop-color:#bce3f8;stop-opacity:1"/><stop offset="1" style="stop-color:#75b2e1;stop-opacity:1"/></linearGradient></defs></svg>