<?xml version="1.0" encoding="UTF-8" standalone="no"?><!DOCTYPE svg PUBLIC "-//W3C//DTD SVG 1.1//EN" "http://www.w3.org/Graphics/SVG/1.1/DTD/svg11.dtd"><svg width="100%" height="100%" viewBox="0 0 120 120" version="1.1" xmlns="http://www.w3.org/2000/svg" xmlns:xlink="http://www.w3.org/1999/xlink" xml:space="preserve" xmlns:serif="http://www.serif.com/" style="fill-rule:evenodd;clip-rule:evenodd;stroke-linejoin:round;stroke-miterlimit:2;"><rect id="Mesa-de-trabajo1" serif:id="Mesa de trabajo1" x="0" y="0" width="120" height="120" style="fill:none;"/><clipPath id="_clip1"><rect x="0" y="0" width="120" height="120"/></clipPath><g clip-path="url(#_clip1)"><g><path d="M17.338,58.762l19.871,65.864l50.107,-47.113l-29.562,-29.618l-40.416,10.868Z" style="fill:url(#_Linear2);fill-rule:nonzero;"/><path d="M46.884,88.406l-10.679,39.856l40.431,-10.888l10.679,-39.856l-40.431,10.888Z" style="fill:url(#_Linear3);fill-rule:nonzero;"/><path d="M6.657,98.623l29.576,29.646l10.679,-39.856l-29.576,-29.646l-10.679,39.856Z" style="fill:url(#_Linear4);fill-rule:nonzero;"/><path d="M27.006,68.428l9.071,9.088l40.408,-10.87l-9.071,-9.088l-40.408,10.87Z" style="fill:url(#_Linear5);fill-rule:nonzero;"/><path d="M24.509,77.749l9.072,9.085l2.497,-9.317l-9.071,-9.088l-2.497,9.32Z" style="fill:url(#_Linear6);fill-rule:nonzero;"/><path d="M71.389,45.983c-1.306,-0.35 -2.647,0.419 -2.998,1.731l-14.278,53.287c-0.35,1.306 0.425,2.648 1.731,2.998l40.136,10.755c1.306,0.35 2.651,-0.424 3.001,-1.73l14.278,-53.287c0.351,-1.311 -0.428,-2.649 -1.734,-2.999l-40.136,-10.755Z" style="fill:url(#_Linear7);fill-rule:nonzero;"/><path d="M72.353,49.573c-0.64,-0.172 -1.296,0.209 -1.467,0.847l-13.259,49.482c-0.172,0.64 0.208,1.29 0.848,1.461l36.545,9.792c0.637,0.171 1.294,-0.201 1.465,-0.841l13.259,-49.482c0.171,-0.637 -0.209,-1.296 -0.847,-1.467l-36.545,-9.792Z" style="fill:url(#_Linear8);fill-rule:nonzero;"/><path d="M81.699,44.134c-1.045,-0.28 -2.121,0.344 -2.401,1.388l-0.645,2.407l25.512,6.836l0.645,-2.407c0.28,-1.045 -0.343,-2.123 -1.388,-2.403l-21.724,-5.821Z" style="fill:url(#_Linear9);fill-rule:nonzero;"/><path d="M86.362,67.087l-11.115,1.181l-0.296,0.071c-0.501,-0.074 -1.009,0.115 -1.335,0.545l-3.791,4.971c-0.6,0.802 -0.519,1.938 0.21,2.63l1.136,1.108l-1.266,4.723c-0.178,0.666 0.025,1.391 0.512,1.874l9.107,8.809l0.626,0.583l0.018,-0.01l0.01,0.018l13.086,-3.278c0.669,-0.173 1.208,-0.7 1.386,-1.365l1.266,-4.723l1.529,-0.394c0.986,-0.232 1.624,-1.175 1.491,-2.174l-0.792,-6.199c-0.031,-0.3 -0.181,-0.581 -0.37,-0.797l-0.344,-0.267l-9.417,-6.863c-0.236,-0.175 -0.5,-0.302 -0.778,-0.377c-0.278,-0.074 -0.576,-0.097 -0.873,-0.065Zm-7.261,4.869l-1.139,-1.109l8.503,-0.888l6.934,5.024l-1.54,0.391l-7.337,1.841l-5.42,-5.26Zm6.592,7.927l6.958,-1.762l2.858,-0.715l0.497,3.85l-9.832,2.479l-0.482,-3.852Zm-13.117,-4.905l2.335,-3.076l2.189,2.107l5.094,4.937l-2.343,3.095l-7.275,-7.063Zm12.345,11.753c0.095,0.026 0.183,0.049 0.288,0.047c0.07,0.019 0.144,0.024 0.213,0.012c0.088,0.009 0.166,-0.001 0.258,-0.006c0.078,-0.009 0.161,-0.017 0.245,-0.04l6.814,-1.717l-0.709,2.645l-9.462,2.368l1.126,-4.204c0.153,0.261 0.345,0.478 0.599,0.651c0.136,0.1 0.284,0.163 0.433,0.203c0.065,0.017 0.13,0.032 0.194,0.04Zm-12.118,-4.21l0.709,-2.645l5.045,4.894c0.059,0.061 0.136,0.112 0.198,0.158c0.077,0.051 0.139,0.098 0.22,0.134c0.054,0.045 0.121,0.077 0.191,0.096c0.091,0.054 0.175,0.077 0.268,0.102c0.217,0.088 0.423,0.128 0.67,0.104c0.299,-0.025 0.579,-0.116 0.821,-0.256l-1.123,4.19l-6.999,-6.778Z" style="fill:url(#_Linear10);fill-rule:nonzero;"/></g></g><defs><linearGradient id="_Linear2" x1="0" y1="0" x2="1" y2="0" gradientUnits="userSpaceOnUse" gradientTransform="matrix(-15.278688,57.020839,-57.020839,-15.278688,56.967088,50.830187)"><stop offset="0" style="stop-color:#fbb331;stop-opacity:1"/><stop offset="1" style="stop-color:#d46b2c;stop-opacity:1"/></linearGradient><linearGradient id="_Linear3" x1="0" y1="0" x2="1" y2="0" gradientUnits="userSpaceOnUse" gradientTransform="matrix(11.546962,28.767632,-28.767632,11.546962,55.845168,88.149757)"><stop offset="0" style="stop-color:#fbb331;stop-opacity:1"/><stop offset="1" style="stop-color:#d46b2c;stop-opacity:1"/></linearGradient><linearGradient id="_Linear4" x1="0" y1="0" x2="1" y2="0" gradientUnits="userSpaceOnUse" gradientTransform="matrix(-21.289065,22.268996,-22.268996,-21.289065,37.105207,82.724261)"><stop offset="0" style="stop-color:#fbb331;stop-opacity:1"/><stop offset="1" style="stop-color:#d46b2c;stop-opacity:1"/></linearGradient><linearGradient id="_Linear5" x1="0" y1="0" x2="1" y2="0" gradientUnits="userSpaceOnUse" gradientTransform="matrix(45.722656,12.251349,-12.251349,45.722656,28.885349,61.4126)"><stop offset="0" style="stop-color:#44bbbf;stop-opacity:1"/><stop offset="1" style="stop-color:#2171b8;stop-opacity:1"/></linearGradient><linearGradient id="_Linear6" x1="0" y1="0" x2="1" y2="0" gradientUnits="userSpaceOnUse" gradientTransform="matrix(-2.125516,7.932532,-7.932532,-2.125516,31.234221,74.11324)"><stop offset="0" style="stop-color:#44bbbf;stop-opacity:1"/><stop offset="1" style="stop-color:#2171b8;stop-opacity:1"/></linearGradient><linearGradient id="_Linear7" x1="0" y1="0" x2="1" y2="0" gradientUnits="userSpaceOnUse" gradientTransform="matrix(-16.286505,58.392174,-58.392174,-16.286505,91.861663,51.053234)"><stop offset="0" style="stop-color:#bcbcbb;stop-opacity:1"/><stop offset="1" style="stop-color:#4c4a49;stop-opacity:1"/></linearGradient><linearGradient id="_Linear8" x1="0" y1="0" x2="1" y2="0" gradientUnits="userSpaceOnUse" gradientTransform="matrix(20.336147,57.531875,-57.531875,20.336147,73.264552,50.880876)"><stop offset="0" style="stop-color:#eaf4fc;stop-opacity:1"/><stop offset="1" style="stop-color:#b3c6e7;stop-opacity:1"/></linearGradient><linearGradient id="_Linear9" x1="0" y1="0" x2="1" y2="0" gradientUnits="userSpaceOnUse" gradientTransform="matrix(-2.75433,10.279298,-10.279298,-2.75433,92.787432,46.210613)"><stop offset="0" style="stop-color:#bcbcbb;stop-opacity:1"/><stop offset="1" style="stop-color:#4c4a49;stop-opacity:1"/></linearGradient><linearGradient id="_Linear10" x1="0" y1="0" x2="1" y2="0" gradientUnits="userSpaceOnUse" gradientTransform="matrix(10.077227,-37.130744,37.130744,10.077227,78.686652,98.764139)"><stop offset="0" style="stop-color:#bcbcbb;stop-opacity:1"/><stop offset="1" style="stop-color:#4c4a49;stop-opacity:1"/></linearGradient></defs></svg>