<?xml version="1.0" encoding="UTF-8" standalone="no"?><!DOCTYPE svg PUBLIC "-//W3C//DTD SVG 1.1//EN" "http://www.w3.org/Graphics/SVG/1.1/DTD/svg11.dtd"><svg width="100%" height="100%" viewBox="0 0 120 120" version="1.1" xmlns="http://www.w3.org/2000/svg" xmlns:xlink="http://www.w3.org/1999/xlink" xml:space="preserve" xmlns:serif="http://www.serif.com/" style="fill-rule:evenodd;clip-rule:evenodd;stroke-linejoin:round;stroke-miterlimit:2;"><rect id="Mesa-de-trabajo1" serif:id="Mesa de trabajo1" x="0" y="0" width="120" height="120" style="fill:none;"/><clipPath id="_clip1"><rect x="0" y="0" width="120" height="120"/></clipPath><g clip-path="url(#_clip1)"><g><path d="M39.379,26.959c-4.062,-1.088 -8.245,1.327 -9.334,5.389l-4.718,17.609c-0.66,2.463 0.804,4.992 3.262,5.651l55.017,14.742c4.062,1.088 8.244,-1.321 9.334,-5.389l3.94,-14.704c1.088,-4.062 -1.327,-8.245 -5.389,-9.334l-52.112,-13.963Z" style="fill:url(#_Linear2);fill-rule:nonzero;"/><path d="M37.893,87.544c-4.064,-1.089 -8.241,1.328 -9.33,5.39l-3.94,14.704c-1.088,4.062 1.321,8.244 5.385,9.333l52.11,13.963c4.068,1.09 8.248,-1.326 9.336,-5.388l4.719,-17.611c0.66,-2.463 -0.8,-4.989 -3.263,-5.649l-55.017,-14.742Z" style="fill:url(#_Linear3);fill-rule:nonzero;"/><path d="M41.011,27.397l-19.86,74.12c-1.805,6.737 2.19,13.667 8.934,15.474l50.408,13.507l19.86,-74.12c1.805,-6.737 -2.197,-13.669 -8.934,-15.474l-50.408,-13.507Z" style="fill:url(#_Linear4);fill-rule:nonzero;"/><path d="M47.104,53.348c-0.707,-0.189 -1.433,0.225 -1.623,0.932l-10.288,38.396c-0.189,0.707 0.232,1.433 0.938,1.622l38.265,10.253c0.702,0.188 1.428,-0.231 1.617,-0.937l0.459,-1.715c0.189,-0.707 -0.229,-1.434 -0.932,-1.623l-35.272,-9.451l9.485,-35.4c0.189,-0.707 -0.231,-1.428 -0.933,-1.616l-1.719,-0.461Z" style="fill:url(#_Linear5);fill-rule:nonzero;"/><path d="M69.735,85.878c-0.905,-0.242 -1.835,0.294 -2.078,1.201l-2.771,10.341l10.053,2.694l2.771,-10.341c0.243,-0.907 -0.294,-1.837 -1.203,-2.081l-6.773,-1.815Z" style="fill:url(#_Linear6);fill-rule:nonzero;"/><path d="M63.221,63.802c-0.903,-0.242 -1.833,0.295 -2.075,1.198l-7.854,29.313l10.051,2.693l7.854,-29.313c0.242,-0.903 -0.293,-1.832 -1.202,-2.076l-6.775,-1.815Z" style="fill:url(#_Linear7);fill-rule:nonzero;"/><path d="M49.279,69.026c-0.847,-0.227 -1.711,0.27 -1.939,1.119l-5.643,21.061l10.051,2.693l5.643,-21.061c0.228,-0.849 -0.276,-1.713 -1.123,-1.94l-6.989,-1.873Z" style="fill:url(#_Linear8);fill-rule:nonzero;"/></g></g><defs><linearGradient id="_Linear2" x1="0" y1="0" x2="1" y2="0" gradientUnits="userSpaceOnUse" gradientTransform="matrix(7.939403,-29.630254,29.630254,7.939403,57.504146,63.544184)"><stop offset="0" style="stop-color:#daeffa;stop-opacity:1"/><stop offset="0.46" style="stop-color:#bce3f8;stop-opacity:1"/><stop offset="1" style="stop-color:#75b2e1;stop-opacity:1"/></linearGradient><linearGradient id="_Linear3" x1="0" y1="0" x2="1" y2="0" gradientUnits="userSpaceOnUse" gradientTransform="matrix(7.939403,-29.630254,29.630254,7.939403,56.018362,124.126194)"><stop offset="0" style="stop-color:#daeffa;stop-opacity:1"/><stop offset="0.46" style="stop-color:#bce3f8;stop-opacity:1"/><stop offset="1" style="stop-color:#75b2e1;stop-opacity:1"/></linearGradient><linearGradient id="_Linear4" x1="0" y1="0" x2="1" y2="0" gradientUnits="userSpaceOnUse" gradientTransform="matrix(-23.035393,85.969259,-85.969259,-23.035393,72.227706,36.111584)"><stop offset="0" style="stop-color:#daeffa;stop-opacity:1"/><stop offset="0.46" style="stop-color:#bce3f8;stop-opacity:1"/><stop offset="1" style="stop-color:#75b2e1;stop-opacity:1"/></linearGradient><linearGradient id="_Linear5" x1="0" y1="0" x2="1" y2="0" gradientUnits="userSpaceOnUse" gradientTransform="matrix(30.797985,52.750637,-52.750637,30.797985,33.451905,58.592606)"><stop offset="0" style="stop-color:#c3cbd2;stop-opacity:1"/><stop offset="0.99" style="stop-color:#687b90;stop-opacity:1"/><stop offset="1" style="stop-color:#687b90;stop-opacity:1"/></linearGradient><linearGradient id="_Linear6" x1="0" y1="0" x2="1" y2="0" gradientUnits="userSpaceOnUse" gradientTransform="matrix(7.682671,12.788356,-12.788356,7.682671,67.651669,87.025294)"><stop offset="0" style="stop-color:#e58e24;stop-opacity:1"/><stop offset="1" style="stop-color:#d4212c;stop-opacity:1"/></linearGradient><linearGradient id="_Linear7" x1="0" y1="0" x2="1" y2="0" gradientUnits="userSpaceOnUse" gradientTransform="matrix(14.488384,24.116952,-24.116952,14.488384,55.280238,68.910281)"><stop offset="0" style="stop-color:#faeb0e;stop-opacity:1"/><stop offset="1" style="stop-color:#df942c;stop-opacity:1"/></linearGradient><linearGradient id="_Linear8" x1="0" y1="0" x2="1" y2="0" gradientUnits="userSpaceOnUse" gradientTransform="matrix(11.512485,19.163355,-19.163355,11.512485,44.023921,72.3665)"><stop offset="0" style="stop-color:#c0d131;stop-opacity:1"/><stop offset="1" style="stop-color:#6bb444;stop-opacity:1"/></linearGradient></defs></svg>