<?xml version="1.0" encoding="UTF-8" standalone="no"?><!DOCTYPE svg PUBLIC "-//W3C//DTD SVG 1.1//EN" "http://www.w3.org/Graphics/SVG/1.1/DTD/svg11.dtd"><svg width="100%" height="100%" viewBox="0 0 120 120" version="1.1" xmlns="http://www.w3.org/2000/svg" xmlns:xlink="http://www.w3.org/1999/xlink" xml:space="preserve" xmlns:serif="http://www.serif.com/" style="fill-rule:evenodd;clip-rule:evenodd;stroke-linejoin:round;stroke-miterlimit:2;"><rect id="Mesa-de-trabajo1" serif:id="Mesa de trabajo1" x="0" y="0" width="120" height="120" style="fill:none;"/><clipPath id="_clip1"><rect x="0" y="0" width="120" height="120"/></clipPath><g clip-path="url(#_clip1)"><g><path d="M78.412,119.952c0.791,-2.951 5.57,-4.238 10.666,-2.872c5.096,1.366 8.592,4.87 7.801,7.82c-0.791,2.951 -5.57,4.238 -10.666,2.872c-5.096,-1.366 -8.592,-4.87 -7.801,-7.82Z" style="fill:url(#_Linear2);"/><path d="M79.38,116.34c0.791,-2.951 5.57,-4.238 10.666,-2.872c5.096,1.366 8.592,4.87 7.801,7.82c-0.791,2.951 -5.57,4.238 -10.666,2.872c-5.096,-1.366 -8.592,-4.87 -7.801,-7.82Z" style="fill:url(#_Linear3);"/><path d="M80.348,112.729c0.791,-2.951 5.57,-4.238 10.666,-2.872c5.096,1.366 8.592,4.87 7.801,7.82c-0.791,2.951 -5.57,4.238 -10.666,2.872c-5.096,-1.366 -8.592,-4.87 -7.801,-7.82Z" style="fill:url(#_Linear4);"/><path d="M87.771,117.87l0.271,-1.012l1.995,0.535l-0.271,1.012c-0.029,0.107 -0.239,0.145 -0.469,0.083l-1.162,-0.311c-0.23,-0.062 -0.393,-0.2 -0.364,-0.307m1.297,-4.84l0.279,-1.042c0.029,-0.107 0.239,-0.142 0.468,-0.081l1.162,0.311c0.23,0.062 0.394,0.197 0.365,0.304l-0.279,1.042l-1.995,-0.535Zm3.971,4.081c-0.074,0.275 -0.301,0.481 -0.674,0.612c-0.376,0.131 -0.86,0.185 -1.449,0.161c-0.592,-0.024 -1.255,-0.136 -1.992,-0.333c-0.849,-0.228 -1.574,-0.505 -2.175,-0.837c-0.514,-0.284 -0.916,-0.62 -1.207,-1.019c-0.087,-0.115 0.014,-0.211 0.218,-0.216l1.151,-0.021c0.19,-0.004 0.421,0.073 0.53,0.182c0.239,0.239 0.5,0.432 0.782,0.576c0.353,0.178 0.716,0.318 1.096,0.42c0.366,0.098 0.683,0.143 0.944,0.133c0.257,-0.008 0.403,-0.072 0.435,-0.193c0.021,-0.08 -0.014,-0.173 -0.105,-0.28c-0.092,-0.105 -0.276,-0.231 -0.557,-0.378c-0.276,-0.146 -0.695,-0.324 -1.251,-0.533c-0.656,-0.253 -1.178,-0.499 -1.563,-0.737c-0.386,-0.238 -0.651,-0.475 -0.794,-0.711c-0.149,-0.235 -0.19,-0.466 -0.128,-0.696c0.072,-0.27 0.284,-0.473 0.633,-0.612c0.349,-0.138 0.807,-0.202 1.373,-0.188c0.566,0.014 1.224,0.122 1.969,0.322c0.831,0.223 1.52,0.49 2.077,0.808c0.427,0.243 0.774,0.499 1.035,0.764c0.129,0.129 0.064,0.252 -0.154,0.265l-1.179,0.062c-0.174,0.008 -0.398,-0.055 -0.513,-0.158c-0.188,-0.162 -0.406,-0.301 -0.658,-0.417c-0.336,-0.156 -0.677,-0.282 -1.025,-0.375c-0.369,-0.099 -0.67,-0.139 -0.906,-0.123c-0.233,0.015 -0.365,0.08 -0.396,0.195c-0.02,0.075 0.009,0.157 0.088,0.247c0.08,0.087 0.238,0.19 0.47,0.309c0.229,0.116 0.571,0.262 1.018,0.43c1.112,0.433 1.902,0.83 2.367,1.198c0.465,0.368 0.648,0.746 0.542,1.141" style="fill:#fff;fill-rule:nonzero;"/><path d="M56.107,113.866c0.791,-2.951 5.569,-4.238 10.664,-2.873c5.095,1.365 8.589,4.869 7.799,7.82c-0.791,2.951 -5.569,4.238 -10.664,2.873c-5.095,-1.365 -8.589,-4.869 -7.799,-7.82Z" style="fill:url(#_Linear5);"/><path d="M57.074,110.256c0.791,-2.951 5.569,-4.239 10.664,-2.874c5.095,1.365 8.589,4.87 7.798,7.821c-0.791,2.951 -5.569,4.239 -10.664,2.874c-5.095,-1.365 -8.589,-4.87 -7.798,-7.821Z" style="fill:url(#_Linear6);"/><path d="M58.041,106.646c0.791,-2.951 5.569,-4.238 10.664,-2.873c5.095,1.365 8.589,4.869 7.799,7.82c-0.791,2.951 -5.569,4.238 -10.664,2.873c-5.095,-1.365 -8.589,-4.869 -7.799,-7.82Z" style="fill:url(#_Linear7);"/><path d="M59.009,103.035c0.791,-2.951 5.569,-4.238 10.664,-2.873c5.095,1.365 8.589,4.869 7.799,7.82c-0.791,2.951 -5.569,4.238 -10.664,2.873c-5.095,-1.365 -8.589,-4.869 -7.799,-7.82Z" style="fill:url(#_Linear8);"/><path d="M59.976,99.423c0.791,-2.951 5.569,-4.238 10.664,-2.873c5.095,1.365 8.589,4.869 7.799,7.82c-0.791,2.951 -5.569,4.238 -10.664,2.873c-5.095,-1.365 -8.589,-4.869 -7.799,-7.82Z" style="fill:url(#_Linear9);"/><path d="M60.944,95.812c0.791,-2.951 5.569,-4.238 10.664,-2.873c5.095,1.365 8.589,4.869 7.799,7.82c-0.791,2.951 -5.569,4.238 -10.664,2.873c-5.095,-1.365 -8.589,-4.869 -7.799,-7.82Z" style="fill:url(#_Linear10);"/><path d="M61.911,92.202c0.79,-2.95 5.569,-4.237 10.663,-2.871c5.095,1.365 8.59,4.868 7.799,7.818c-0.79,2.95 -5.569,4.237 -10.663,2.871c-5.095,-1.365 -8.59,-4.868 -7.799,-7.818Z" style="fill:url(#_Linear11);"/><path d="M62.879,88.589c0.791,-2.951 5.569,-4.238 10.664,-2.873c5.095,1.365 8.589,4.869 7.799,7.82c-0.791,2.951 -5.569,4.238 -10.664,2.873c-5.095,-1.365 -8.589,-4.869 -7.799,-7.82Z" style="fill:url(#_Linear12);"/><path d="M63.846,84.981c0.791,-2.951 5.569,-4.238 10.664,-2.873c5.095,1.365 8.589,4.869 7.799,7.82c-0.791,2.951 -5.569,4.238 -10.664,2.873c-5.095,-1.365 -8.589,-4.869 -7.799,-7.82Z" style="fill:url(#_Linear13);"/><path d="M64.814,81.369c0.791,-2.951 5.569,-4.238 10.664,-2.873c5.095,1.365 8.589,4.869 7.799,7.82c-0.791,2.951 -5.569,4.238 -10.664,2.873c-5.095,-1.365 -8.589,-4.869 -7.799,-7.82Z" style="fill:url(#_Linear14);"/><path d="M72.234,86.509l0.271,-1.012l1.995,0.535l-0.271,1.012c-0.029,0.107 -0.239,0.142 -0.468,0.081l-1.162,-0.311c-0.23,-0.062 -0.394,-0.197 -0.365,-0.304m1.297,-4.84l0.279,-1.042c0.029,-0.107 0.239,-0.142 0.468,-0.081l1.162,0.311c0.23,0.062 0.394,0.197 0.365,0.304l-0.279,1.042l-1.995,-0.535Zm3.971,4.081c-0.074,0.275 -0.301,0.481 -0.674,0.612c-0.376,0.131 -0.857,0.185 -1.448,0.159c-0.593,-0.021 -1.255,-0.133 -1.993,-0.331c-0.847,-0.227 -1.573,-0.507 -2.175,-0.837c-0.514,-0.284 -0.915,-0.623 -1.207,-1.019c-0.086,-0.117 0.014,-0.214 0.218,-0.216l1.153,-0.02c0.187,-0.004 0.419,0.072 0.53,0.182c0.237,0.238 0.497,0.431 0.78,0.573c0.352,0.18 0.716,0.318 1.096,0.42c0.369,0.099 0.682,0.146 0.943,0.135c0.258,-0.011 0.406,-0.074 0.438,-0.192c0.021,-0.08 -0.016,-0.176 -0.108,-0.281c-0.092,-0.105 -0.276,-0.231 -0.554,-0.378c-0.279,-0.146 -0.698,-0.324 -1.254,-0.534c-0.656,-0.253 -1.178,-0.499 -1.563,-0.737c-0.385,-0.241 -0.651,-0.475 -0.794,-0.711c-0.149,-0.235 -0.189,-0.469 -0.128,-0.696c0.072,-0.27 0.284,-0.473 0.633,-0.612c0.349,-0.138 0.807,-0.202 1.373,-0.188c0.566,0.014 1.224,0.122 1.969,0.322c0.831,0.223 1.523,0.491 2.077,0.808c0.43,0.244 0.774,0.499 1.035,0.764c0.129,0.129 0.064,0.252 -0.154,0.265l-1.179,0.062c-0.174,0.008 -0.398,-0.055 -0.513,-0.158c-0.188,-0.162 -0.406,-0.301 -0.658,-0.417c-0.336,-0.156 -0.677,-0.282 -1.025,-0.375c-0.369,-0.099 -0.67,-0.139 -0.904,-0.122c-0.236,0.014 -0.368,0.079 -0.398,0.194c-0.02,0.075 0.009,0.157 0.089,0.244c0.082,0.091 0.238,0.192 0.469,0.312c0.232,0.117 0.571,0.262 1.018,0.43c1.112,0.433 1.902,0.83 2.367,1.198c0.466,0.365 0.648,0.746 0.542,1.141" style="fill:#fff;fill-rule:nonzero;"/><path d="M33.768,107.88c0.791,-2.951 5.57,-4.238 10.666,-2.872c5.096,1.366 8.592,4.87 7.801,7.82c-0.791,2.951 -5.57,4.238 -10.666,2.872c-5.096,-1.366 -8.592,-4.87 -7.801,-7.82Z" style="fill:url(#_Linear15);"/><path d="M34.735,104.27c0.791,-2.951 5.57,-4.239 10.667,-2.873c5.096,1.366 8.592,4.87 7.801,7.822c-0.791,2.951 -5.57,4.239 -10.667,2.873c-5.096,-1.366 -8.592,-4.87 -7.801,-7.822Z" style="fill:url(#_Linear16);"/><path d="M35.703,100.66c0.791,-2.951 5.57,-4.238 10.666,-2.872c5.096,1.366 8.592,4.87 7.801,7.82c-0.791,2.951 -5.57,4.238 -10.666,2.872c-5.096,-1.366 -8.592,-4.87 -7.801,-7.82Z" style="fill:url(#_Linear17);"/><path d="M36.67,97.049c0.791,-2.951 5.57,-4.238 10.666,-2.872c5.096,1.366 8.592,4.87 7.801,7.82c-0.791,2.951 -5.57,4.238 -10.666,2.872c-5.096,-1.366 -8.592,-4.87 -7.801,-7.82Z" style="fill:url(#_Linear18);"/><path d="M37.638,93.438c0.791,-2.951 5.57,-4.238 10.666,-2.872c5.096,1.366 8.592,4.87 7.801,7.82c-0.791,2.951 -5.57,4.238 -10.666,2.872c-5.096,-1.366 -8.592,-4.87 -7.801,-7.82Z" style="fill:url(#_Linear19);"/><path d="M38.606,89.827c0.791,-2.951 5.57,-4.238 10.666,-2.872c5.096,1.366 8.592,4.87 7.801,7.82c-0.791,2.951 -5.57,4.238 -10.666,2.872c-5.096,-1.366 -8.592,-4.87 -7.801,-7.82Z" style="fill:url(#_Linear20);"/><path d="M46.028,94.968l0.271,-1.012l1.995,0.535l-0.271,1.012c-0.029,0.107 -0.239,0.142 -0.468,0.081l-1.162,-0.311c-0.23,-0.062 -0.394,-0.197 -0.365,-0.304m1.297,-4.84l0.279,-1.042c0.029,-0.107 0.239,-0.142 0.468,-0.081l1.162,0.311c0.23,0.062 0.394,0.197 0.365,0.304l-0.279,1.042l-1.995,-0.535Zm3.971,4.081c-0.074,0.275 -0.301,0.481 -0.674,0.612c-0.375,0.129 -0.857,0.185 -1.448,0.159c-0.593,-0.021 -1.255,-0.133 -1.99,-0.33c-0.849,-0.228 -1.576,-0.508 -2.177,-0.838c-0.514,-0.284 -0.915,-0.623 -1.207,-1.019c-0.086,-0.117 0.017,-0.213 0.218,-0.216l1.154,-0.023c0.187,-0.002 0.418,0.075 0.529,0.185c0.237,0.238 0.497,0.431 0.78,0.573c0.352,0.18 0.716,0.318 1.096,0.42c0.369,0.099 0.682,0.146 0.943,0.135c0.258,-0.011 0.406,-0.074 0.438,-0.192c0.021,-0.08 -0.016,-0.176 -0.108,-0.281c-0.091,-0.108 -0.276,-0.231 -0.554,-0.378c-0.279,-0.146 -0.698,-0.324 -1.254,-0.534c-0.656,-0.253 -1.178,-0.499 -1.563,-0.737c-0.385,-0.241 -0.651,-0.475 -0.794,-0.711c-0.146,-0.234 -0.187,-0.468 -0.126,-0.695c0.073,-0.272 0.282,-0.474 0.631,-0.613c0.349,-0.138 0.807,-0.202 1.373,-0.188c0.566,0.014 1.224,0.122 1.969,0.322c0.831,0.223 1.523,0.491 2.077,0.808c0.43,0.244 0.774,0.497 1.035,0.764c0.131,0.13 0.064,0.252 -0.154,0.265l-1.178,0.059c-0.172,0.011 -0.398,-0.052 -0.514,-0.155c-0.188,-0.162 -0.406,-0.301 -0.658,-0.417c-0.335,-0.159 -0.677,-0.282 -1.025,-0.375c-0.369,-0.099 -0.67,-0.139 -0.903,-0.125c-0.236,0.017 -0.368,0.082 -0.399,0.197c-0.02,0.075 0.009,0.157 0.089,0.244c0.082,0.088 0.238,0.192 0.47,0.309c0.231,0.119 0.57,0.264 1.018,0.433c1.112,0.433 1.902,0.83 2.367,1.198c0.466,0.365 0.648,0.746 0.542,1.141" style="fill:#fff;fill-rule:nonzero;"/><path d="M29.876,106.946c-0.791,2.951 -5.57,4.238 -10.666,2.872c-5.096,-1.366 -8.592,-4.87 -7.801,-7.82c0.791,-2.951 5.57,-4.238 10.666,-2.872c5.096,1.366 8.592,4.87 7.801,7.82Z" style="fill:url(#_Linear21);"/><path d="M30.833,103.375c-0.791,2.951 -5.57,4.238 -10.666,2.872c-5.096,-1.366 -8.592,-4.87 -7.801,-7.82c0.791,-2.951 5.57,-4.238 10.666,-2.872c5.096,1.366 8.592,4.87 7.801,7.82Z" style="fill:url(#_Linear22);"/><path d="M31.789,99.808c-0.79,2.948 -5.569,4.234 -10.665,2.868c-5.096,-1.366 -8.593,-4.868 -7.803,-7.816c0.79,-2.948 5.569,-4.234 10.665,-2.868c5.096,1.366 8.593,4.868 7.803,7.816Z" style="fill:url(#_Linear23);"/><path d="M32.745,96.241c-0.791,2.951 -5.57,4.238 -10.666,2.872c-5.096,-1.366 -8.592,-4.87 -7.801,-7.82c0.791,-2.951 5.57,-4.238 10.666,-2.872c5.096,1.366 8.592,4.87 7.801,7.82Z" style="fill:url(#_Linear24);"/><path d="M33.701,92.669c-0.791,2.951 -5.57,4.238 -10.666,2.872c-5.096,-1.366 -8.592,-4.87 -7.801,-7.82c0.791,-2.951 5.57,-4.238 10.666,-2.872c5.096,1.366 8.592,4.87 7.801,7.82Z" style="fill:url(#_Linear25);"/><path d="M34.657,89.102c-0.79,2.948 -5.569,4.234 -10.665,2.868c-5.096,-1.366 -8.593,-4.868 -7.803,-7.816c0.79,-2.948 5.569,-4.234 10.665,-2.868c5.096,1.366 8.593,4.868 7.803,7.816Z" style="fill:url(#_Linear26);"/><path d="M17.145,80.586c0.791,-2.951 5.57,-4.238 10.666,-2.872c5.096,1.366 8.592,4.87 7.801,7.82c-0.791,2.951 -5.57,4.238 -10.666,2.872c-5.096,-1.366 -8.592,-4.87 -7.801,-7.82Z" style="fill:url(#_Linear27);"/><path d="M18.102,77.015c0.791,-2.951 5.57,-4.238 10.666,-2.872c5.096,1.366 8.592,4.87 7.801,7.82c-0.791,2.951 -5.57,4.238 -10.666,2.872c-5.096,-1.366 -8.592,-4.87 -7.801,-7.82Z" style="fill:url(#_Linear28);"/><path d="M19.059,73.444c0.791,-2.951 5.57,-4.238 10.666,-2.872c5.096,1.366 8.592,4.87 7.801,7.82c-0.791,2.951 -5.57,4.238 -10.666,2.872c-5.096,-1.366 -8.592,-4.87 -7.801,-7.82Z" style="fill:url(#_Linear29);"/><path d="M20.014,69.881c0.791,-2.951 5.57,-4.238 10.666,-2.872c5.096,1.366 8.592,4.87 7.801,7.82c-0.791,2.951 -5.57,4.238 -10.666,2.872c-5.096,-1.366 -8.592,-4.87 -7.801,-7.82Z" style="fill:url(#_Linear30);"/><path d="M20.971,66.309c0.791,-2.951 5.57,-4.238 10.666,-2.872c5.096,1.366 8.592,4.87 7.801,7.82c-0.791,2.951 -5.57,4.238 -10.666,2.872c-5.096,-1.366 -8.592,-4.87 -7.801,-7.82Z" style="fill:url(#_Linear31);"/><path d="M21.928,62.738c0.791,-2.951 5.57,-4.238 10.666,-2.872c5.096,1.366 8.592,4.87 7.801,7.82c-0.791,2.951 -5.57,4.238 -10.666,2.872c-5.096,-1.366 -8.592,-4.87 -7.801,-7.82Z" style="fill:url(#_Linear32);"/><path d="M22.883,59.171c0.79,-2.948 5.569,-4.234 10.665,-2.868c5.096,1.366 8.593,4.868 7.803,7.816c-0.79,2.948 -5.569,4.234 -10.665,2.868c-5.096,-1.366 -8.593,-4.868 -7.803,-7.816Z" style="fill:url(#_Linear33);"/><path d="M23.839,55.604c0.791,-2.951 5.57,-4.238 10.666,-2.872c5.096,1.366 8.592,4.87 7.801,7.82c-0.791,2.951 -5.57,4.238 -10.666,2.872c-5.096,-1.366 -8.592,-4.87 -7.801,-7.82Z" style="fill:url(#_Linear34);"/><path d="M24.796,52.032c0.791,-2.951 5.57,-4.238 10.666,-2.872c5.096,1.366 8.592,4.87 7.801,7.82c-0.791,2.951 -5.57,4.238 -10.666,2.872c-5.096,-1.366 -8.592,-4.87 -7.801,-7.82Z" style="fill:url(#_Linear35);"/><path d="M32.214,57.174l0.271,-1.012l1.995,0.535l-0.271,1.012c-0.029,0.107 -0.239,0.145 -0.469,0.083l-1.162,-0.311c-0.23,-0.062 -0.393,-0.2 -0.364,-0.307m1.297,-4.84l0.279,-1.042c0.029,-0.107 0.239,-0.142 0.468,-0.081l1.162,0.311c0.23,0.062 0.394,0.197 0.365,0.304l-0.279,1.042l-1.995,-0.535Zm3.971,4.081c-0.074,0.275 -0.298,0.481 -0.674,0.612c-0.373,0.132 -0.857,0.185 -1.448,0.159c-0.59,-0.021 -1.255,-0.133 -1.99,-0.33c-0.849,-0.228 -1.576,-0.508 -2.177,-0.838c-0.511,-0.283 -0.915,-0.623 -1.204,-1.018c-0.089,-0.116 0.014,-0.214 0.216,-0.217l1.153,-0.02c0.19,-0.004 0.419,0.072 0.53,0.182c0.237,0.238 0.497,0.431 0.78,0.573c0.352,0.18 0.718,0.321 1.095,0.422c0.369,0.099 0.683,0.143 0.944,0.133c0.26,-0.01 0.406,-0.072 0.438,-0.192c0.021,-0.08 -0.013,-0.175 -0.105,-0.28c-0.095,-0.106 -0.278,-0.232 -0.557,-0.378c-0.279,-0.146 -0.698,-0.324 -1.254,-0.534c-0.656,-0.253 -1.178,-0.499 -1.563,-0.737c-0.385,-0.241 -0.651,-0.475 -0.794,-0.711c-0.146,-0.234 -0.187,-0.465 -0.126,-0.695c0.072,-0.27 0.282,-0.474 0.631,-0.613c0.349,-0.138 0.807,-0.202 1.376,-0.187c0.563,0.013 1.221,0.121 1.967,0.321c0.831,0.223 1.523,0.491 2.079,0.809c0.427,0.243 0.771,0.499 1.035,0.764c0.129,0.129 0.062,0.251 -0.157,0.264l-1.179,0.062c-0.171,0.009 -0.395,-0.054 -0.513,-0.158c-0.188,-0.162 -0.406,-0.301 -0.658,-0.417c-0.333,-0.155 -0.677,-0.282 -1.025,-0.375c-0.369,-0.099 -0.67,-0.139 -0.904,-0.122c-0.236,0.014 -0.368,0.079 -0.398,0.194c-0.02,0.075 0.009,0.157 0.089,0.244c0.082,0.091 0.238,0.192 0.469,0.312c0.232,0.117 0.571,0.262 1.018,0.43c1.112,0.433 1.902,0.83 2.367,1.198c0.466,0.365 0.648,0.746 0.542,1.141" style="fill:#fff;fill-rule:nonzero;"/><path d="M57.563,59.783l-2.534,9.458l24.389,-9.554l2.534,-9.458l-24.389,9.554Z" style="fill:url(#_Linear36);fill-rule:nonzero;"/><path d="M79.424,59.689l14.802,34.089l2.534,-9.458l-14.802,-34.089l-2.534,9.458Z" style="fill:url(#_Linear37);fill-rule:nonzero;"/><path d="M39.749,33.847l15.325,35.418l2.534,-9.456l-15.325,-35.418l-2.534,9.456Z" style="fill:url(#_Linear38);fill-rule:nonzero;"/><path d="M29.526,34.38l10.223,-0.533l2.534,-9.456l-12.757,9.989Z" style="fill:url(#_Linear39);fill-rule:nonzero;"/><path d="M96.76,84.32l-2.534,9.458l13.807,-10.5l-11.273,1.042Z" style="fill:url(#_Linear40);fill-rule:nonzero;"/></g></g><defs><linearGradient id="_Linear2" x1="0" y1="0" x2="1" y2="0" gradientUnits="userSpaceOnUse" gradientTransform="matrix(-14.463103,16.069732,16.069732,14.463103,93.985496,115.384689)"><stop offset="0" style="stop-color:#faeb0e;stop-opacity:1"/><stop offset="1" style="stop-color:#f4921f;stop-opacity:1"/></linearGradient><linearGradient id="_Linear3" x1="0" y1="0" x2="1" y2="0" gradientUnits="userSpaceOnUse" gradientTransform="matrix(34.596308,-10.039238,-10.039238,-34.596308,74.232581,122.988801)"><stop offset="0" style="stop-color:#faeb0e;stop-opacity:1"/><stop offset="1" style="stop-color:#f4921f;stop-opacity:1"/></linearGradient><linearGradient id="_Linear4" x1="0" y1="0" x2="1" y2="0" gradientUnits="userSpaceOnUse" gradientTransform="matrix(-14.463103,16.069732,16.069732,14.463103,95.920519,108.163087)"><stop offset="0" style="stop-color:#faeb0e;stop-opacity:1"/><stop offset="1" style="stop-color:#f4921f;stop-opacity:1"/></linearGradient><linearGradient id="_Linear5" x1="0" y1="0" x2="1" y2="0" gradientUnits="userSpaceOnUse" gradientTransform="matrix(-14.463103,16.069732,16.069732,14.463103,71.675911,109.299217)"><stop offset="0" style="stop-color:#faeb0e;stop-opacity:1"/><stop offset="1" style="stop-color:#f4921f;stop-opacity:1"/></linearGradient><linearGradient id="_Linear6" x1="0" y1="0" x2="1" y2="0" gradientUnits="userSpaceOnUse" gradientTransform="matrix(34.596308,-10.039238,-10.039238,-34.596308,51.922995,116.903328)"><stop offset="0" style="stop-color:#faeb0e;stop-opacity:1"/><stop offset="1" style="stop-color:#f4921f;stop-opacity:1"/></linearGradient><linearGradient id="_Linear7" x1="0" y1="0" x2="1" y2="0" gradientUnits="userSpaceOnUse" gradientTransform="matrix(-14.463103,16.069732,16.069732,14.463103,73.610934,102.077614)"><stop offset="0" style="stop-color:#faeb0e;stop-opacity:1"/><stop offset="1" style="stop-color:#f4921f;stop-opacity:1"/></linearGradient><linearGradient id="_Linear8" x1="0" y1="0" x2="1" y2="0" gradientUnits="userSpaceOnUse" gradientTransform="matrix(30.754293,-12.572413,-12.572413,-30.754293,55.239683,110.822176)"><stop offset="0" style="stop-color:#faeb0e;stop-opacity:1"/><stop offset="1" style="stop-color:#f4921f;stop-opacity:1"/></linearGradient><linearGradient id="_Linear9" x1="0" y1="0" x2="1" y2="0" gradientUnits="userSpaceOnUse" gradientTransform="matrix(-29.425348,1.266177,1.266177,29.425348,80.820534,101.396773)"><stop offset="0" style="stop-color:#faeb0e;stop-opacity:1"/><stop offset="1" style="stop-color:#f4921f;stop-opacity:1"/></linearGradient><linearGradient id="_Linear10" x1="0" y1="0" x2="1" y2="0" gradientUnits="userSpaceOnUse" gradientTransform="matrix(31.918861,2.670055,2.670055,-31.918861,57.76271,97.248177)"><stop offset="0" style="stop-color:#faeb0e;stop-opacity:1"/><stop offset="1" style="stop-color:#f4921f;stop-opacity:1"/></linearGradient><linearGradient id="_Linear11" x1="0" y1="0" x2="1" y2="0" gradientUnits="userSpaceOnUse" gradientTransform="matrix(-29.425348,1.266177,1.266177,29.425348,82.755207,94.176474)"><stop offset="0" style="stop-color:#faeb0e;stop-opacity:1"/><stop offset="1" style="stop-color:#f4921f;stop-opacity:1"/></linearGradient><linearGradient id="_Linear12" x1="0" y1="0" x2="1" y2="0" gradientUnits="userSpaceOnUse" gradientTransform="matrix(31.918861,2.670055,2.670055,-31.918861,59.697733,90.026574)"><stop offset="0" style="stop-color:#faeb0e;stop-opacity:1"/><stop offset="1" style="stop-color:#f4921f;stop-opacity:1"/></linearGradient><linearGradient id="_Linear13" x1="0" y1="0" x2="1" y2="0" gradientUnits="userSpaceOnUse" gradientTransform="matrix(-29.425348,1.266177,1.266177,29.425348,84.69023,86.954871)"><stop offset="0" style="stop-color:#faeb0e;stop-opacity:1"/><stop offset="1" style="stop-color:#f4921f;stop-opacity:1"/></linearGradient><linearGradient id="_Linear14" x1="0" y1="0" x2="1" y2="0" gradientUnits="userSpaceOnUse" gradientTransform="matrix(31.918861,2.670055,2.670055,-31.918861,61.632756,82.804971)"><stop offset="0" style="stop-color:#faeb0e;stop-opacity:1"/><stop offset="1" style="stop-color:#f4921f;stop-opacity:1"/></linearGradient><linearGradient id="_Linear15" x1="0" y1="0" x2="1" y2="0" gradientUnits="userSpaceOnUse" gradientTransform="matrix(-14.463103,16.069732,16.069732,14.463103,49.339416,103.314171)"><stop offset="0" style="stop-color:#faeb0e;stop-opacity:1"/><stop offset="1" style="stop-color:#f4921f;stop-opacity:1"/></linearGradient><linearGradient id="_Linear16" x1="0" y1="0" x2="1" y2="0" gradientUnits="userSpaceOnUse" gradientTransform="matrix(34.596308,-10.039238,-10.039238,-34.596308,29.586501,110.918283)"><stop offset="0" style="stop-color:#faeb0e;stop-opacity:1"/><stop offset="1" style="stop-color:#f4921f;stop-opacity:1"/></linearGradient><linearGradient id="_Linear17" x1="0" y1="0" x2="1" y2="0" gradientUnits="userSpaceOnUse" gradientTransform="matrix(-14.463103,16.069732,16.069732,14.463103,51.274439,96.092568)"><stop offset="0" style="stop-color:#faeb0e;stop-opacity:1"/><stop offset="1" style="stop-color:#f4921f;stop-opacity:1"/></linearGradient><linearGradient id="_Linear18" x1="0" y1="0" x2="1" y2="0" gradientUnits="userSpaceOnUse" gradientTransform="matrix(30.754293,-12.572413,-12.572413,-30.754293,32.903188,104.837131)"><stop offset="0" style="stop-color:#faeb0e;stop-opacity:1"/><stop offset="1" style="stop-color:#f4921f;stop-opacity:1"/></linearGradient><linearGradient id="_Linear19" x1="0" y1="0" x2="1" y2="0" gradientUnits="userSpaceOnUse" gradientTransform="matrix(-29.425348,1.266177,1.266177,29.425348,58.484039,95.411727)"><stop offset="0" style="stop-color:#faeb0e;stop-opacity:1"/><stop offset="1" style="stop-color:#f4921f;stop-opacity:1"/></linearGradient><linearGradient id="_Linear20" x1="0" y1="0" x2="1" y2="0" gradientUnits="userSpaceOnUse" gradientTransform="matrix(31.918861,2.670055,2.670055,-31.918861,35.42752,91.263481)"><stop offset="0" style="stop-color:#faeb0e;stop-opacity:1"/><stop offset="1" style="stop-color:#f4921f;stop-opacity:1"/></linearGradient><linearGradient id="_Linear21" x1="0" y1="0" x2="1" y2="0" gradientUnits="userSpaceOnUse" gradientTransform="matrix(14.463103,-16.069732,-16.069732,-14.463103,14.306589,111.514261)"><stop offset="0" style="stop-color:#faeb0e;stop-opacity:1"/><stop offset="1" style="stop-color:#f4921f;stop-opacity:1"/></linearGradient><linearGradient id="_Linear22" x1="0" y1="0" x2="1" y2="0" gradientUnits="userSpaceOnUse" gradientTransform="matrix(-34.596308,10.039238,10.039238,34.596308,35.985819,96.72626)"><stop offset="0" style="stop-color:#faeb0e;stop-opacity:1"/><stop offset="1" style="stop-color:#f4921f;stop-opacity:1"/></linearGradient><linearGradient id="_Linear23" x1="0" y1="0" x2="1" y2="0" gradientUnits="userSpaceOnUse" gradientTransform="matrix(14.463103,-16.069732,-16.069732,-14.463103,16.21979,104.374095)"><stop offset="0" style="stop-color:#faeb0e;stop-opacity:1"/><stop offset="1" style="stop-color:#f4921f;stop-opacity:1"/></linearGradient><linearGradient id="_Linear24" x1="0" y1="0" x2="1" y2="0" gradientUnits="userSpaceOnUse" gradientTransform="matrix(-30.754293,12.572413,12.572413,30.754293,36.513905,88.453307)"><stop offset="0" style="stop-color:#faeb0e;stop-opacity:1"/><stop offset="1" style="stop-color:#f4921f;stop-opacity:1"/></linearGradient><linearGradient id="_Linear25" x1="0" y1="0" x2="1" y2="0" gradientUnits="userSpaceOnUse" gradientTransform="matrix(29.425348,-1.266177,-1.266177,-29.425348,12.859369,90.694821)"><stop offset="0" style="stop-color:#faeb0e;stop-opacity:1"/><stop offset="1" style="stop-color:#f4921f;stop-opacity:1"/></linearGradient><linearGradient id="_Linear26" x1="0" y1="0" x2="1" y2="0" gradientUnits="userSpaceOnUse" gradientTransform="matrix(-31.918861,-2.670055,-2.670055,31.918861,37.838403,87.668146)"><stop offset="0" style="stop-color:#faeb0e;stop-opacity:1"/><stop offset="1" style="stop-color:#f4921f;stop-opacity:1"/></linearGradient><linearGradient id="_Linear27" x1="0" y1="0" x2="1" y2="0" gradientUnits="userSpaceOnUse" gradientTransform="matrix(34.596308,-10.039238,-10.039238,-34.596308,11.993031,87.232028)"><stop offset="0" style="stop-color:#faeb0e;stop-opacity:1"/><stop offset="1" style="stop-color:#f4921f;stop-opacity:1"/></linearGradient><linearGradient id="_Linear28" x1="0" y1="0" x2="1" y2="0" gradientUnits="userSpaceOnUse" gradientTransform="matrix(-14.463103,16.069732,16.069732,14.463103,33.67109,72.448399)"><stop offset="0" style="stop-color:#faeb0e;stop-opacity:1"/><stop offset="1" style="stop-color:#f4921f;stop-opacity:1"/></linearGradient><linearGradient id="_Linear29" x1="0" y1="0" x2="1" y2="0" gradientUnits="userSpaceOnUse" gradientTransform="matrix(30.754293,-12.572413,-12.572413,-30.754293,15.288307,81.236001)"><stop offset="0" style="stop-color:#faeb0e;stop-opacity:1"/><stop offset="1" style="stop-color:#f4921f;stop-opacity:1"/></linearGradient><linearGradient id="_Linear30" x1="0" y1="0" x2="1" y2="0" gradientUnits="userSpaceOnUse" gradientTransform="matrix(-29.425348,1.266177,1.266177,29.425348,40.85667,71.851984)"><stop offset="0" style="stop-color:#faeb0e;stop-opacity:1"/><stop offset="1" style="stop-color:#f4921f;stop-opacity:1"/></linearGradient><linearGradient id="_Linear31" x1="0" y1="0" x2="1" y2="0" gradientUnits="userSpaceOnUse" gradientTransform="matrix(31.918861,2.670055,2.670055,-31.918861,17.789317,67.744169)"><stop offset="0" style="stop-color:#faeb0e;stop-opacity:1"/><stop offset="1" style="stop-color:#f4921f;stop-opacity:1"/></linearGradient><linearGradient id="_Linear32" x1="0" y1="0" x2="1" y2="0" gradientUnits="userSpaceOnUse" gradientTransform="matrix(-14.463103,16.069732,16.069732,14.463103,37.496053,58.17344)"><stop offset="0" style="stop-color:#faeb0e;stop-opacity:1"/><stop offset="1" style="stop-color:#f4921f;stop-opacity:1"/></linearGradient><linearGradient id="_Linear33" x1="0" y1="0" x2="1" y2="0" gradientUnits="userSpaceOnUse" gradientTransform="matrix(30.754293,-12.572413,-12.572413,-30.754293,19.11327,66.961043)"><stop offset="0" style="stop-color:#faeb0e;stop-opacity:1"/><stop offset="1" style="stop-color:#f4921f;stop-opacity:1"/></linearGradient><linearGradient id="_Linear34" x1="0" y1="0" x2="1" y2="0" gradientUnits="userSpaceOnUse" gradientTransform="matrix(-29.425348,1.266177,1.266177,29.425348,44.681634,57.577026)"><stop offset="0" style="stop-color:#faeb0e;stop-opacity:1"/><stop offset="1" style="stop-color:#f4921f;stop-opacity:1"/></linearGradient><linearGradient id="_Linear35" x1="0" y1="0" x2="1" y2="0" gradientUnits="userSpaceOnUse" gradientTransform="matrix(31.918861,2.670055,2.670055,-31.918861,21.614281,53.469211)"><stop offset="0" style="stop-color:#faeb0e;stop-opacity:1"/><stop offset="1" style="stop-color:#f4921f;stop-opacity:1"/></linearGradient><linearGradient id="_Linear36" x1="0" y1="0" x2="1" y2="0" gradientUnits="userSpaceOnUse" gradientTransform="matrix(19.629861,5.259805,-5.259805,19.629861,58.439775,57.039099)"><stop offset="0" style="stop-color:#a2c1be;stop-opacity:1"/><stop offset="0.03" style="stop-color:#a2c1be;stop-opacity:1"/><stop offset="0.52" style="stop-color:#14b0c4;stop-opacity:1"/><stop offset="1" style="stop-color:#2760ab;stop-opacity:1"/></linearGradient><linearGradient id="_Linear37" x1="0" y1="0" x2="1" y2="0" gradientUnits="userSpaceOnUse" gradientTransform="matrix(21.977316,5.888804,-5.888804,21.977316,76.843136,68.990445)"><stop offset="0" style="stop-color:#a2c1be;stop-opacity:1"/><stop offset="0.03" style="stop-color:#a2c1be;stop-opacity:1"/><stop offset="0.52" style="stop-color:#14b0c4;stop-opacity:1"/><stop offset="1" style="stop-color:#2760ab;stop-opacity:1"/></linearGradient><linearGradient id="_Linear38" x1="0" y1="0" x2="1" y2="0" gradientUnits="userSpaceOnUse" gradientTransform="matrix(22.300712,5.975458,-5.975458,22.300712,37.286277,43.774928)"><stop offset="0" style="stop-color:#a2c1be;stop-opacity:1"/><stop offset="0.03" style="stop-color:#a2c1be;stop-opacity:1"/><stop offset="0.52" style="stop-color:#14b0c4;stop-opacity:1"/><stop offset="1" style="stop-color:#2760ab;stop-opacity:1"/></linearGradient><linearGradient id="_Linear39" x1="0" y1="0" x2="1" y2="0" gradientUnits="userSpaceOnUse" gradientTransform="matrix(9.64837,2.585273,-2.585273,9.64837,30.917737,28.044898)"><stop offset="0" style="stop-color:#a2c1be;stop-opacity:1"/><stop offset="0.03" style="stop-color:#a2c1be;stop-opacity:1"/><stop offset="0.52" style="stop-color:#14b0c4;stop-opacity:1"/><stop offset="1" style="stop-color:#2760ab;stop-opacity:1"/></linearGradient><linearGradient id="_Linear40" x1="0" y1="0" x2="1" y2="0" gradientUnits="userSpaceOnUse" gradientTransform="matrix(11.481409,3.076434,-3.076434,11.481409,95.675008,87.068914)"><stop offset="0" style="stop-color:#a2c1be;stop-opacity:1"/><stop offset="0.03" style="stop-color:#a2c1be;stop-opacity:1"/><stop offset="0.52" style="stop-color:#14b0c4;stop-opacity:1"/><stop offset="1" style="stop-color:#2760ab;stop-opacity:1"/></linearGradient></defs></svg>